# xmcd CD database file
#
# Track frame offsets:
#	150
#	26302
#	48257
#	66852
#	110260
#	131775
#	150200
#	170187
#	199872
#	219167
#	241397
#	263765
#	280260
#
# Disc length: 4183 seconds
#
# Revision: 0
# Processed by: cddbd v1.4PL0 Copyright (c) Steve Scherf et al.
# Submitted via: CDex 1.50
#
DISCID=b110550d
DTITLE=Various Artist - Beautiful Moments
DYEAR=1900
DGENRE=New Age
TTITLE0=Island of Green
TTITLE1=Only The Children
TTITLE2=Nostalgia
TTITLE3=Oboemania
TTITLE4=Harvest Celebrations
TTITLE5=11:11 Rendezvous
TTITLE6=The Call
TTITLE7=Socu
TTITLE8=Bang Bang
TTITLE9=Tu Tu ta Ta Te Te
TTITLE10=Anticipation On Me
TTITLE11=Song For All Seasons
TTITLE12=The End Of The Day
EXTD=
EXTT0=
EXTT1=
EXTT2=
EXTT3=
EXTT4=
EXTT5=
EXTT6=
EXTT7=
EXTT8=
EXTT9=
EXTT10=
EXTT11=
EXTT12=
PLAYORDER=
